<?xml version="1.0" encoding="UTF-8" standalone="no"?>
<!-- Created with Inkscape (http://www.inkscape.org/) -->

<svg
   xmlns:dc="http://purl.org/dc/elements/1.1/"
   xmlns:cc="http://creativecommons.org/ns#"
   xmlns:rdf="http://www.w3.org/1999/02/22-rdf-syntax-ns#"
   xmlns:svg="http://www.w3.org/2000/svg"
   xmlns="http://www.w3.org/2000/svg"
   xmlns:sodipodi="http://sodipodi.sourceforge.net/DTD/sodipodi-0.dtd"
   xmlns:inkscape="http://www.inkscape.org/namespaces/inkscape"
   width="150"
   height="50"
   id="svg3138"
   version="1.1"
   inkscape:version="0.91 r13725"
   sodipodi:docname="logo_winter_oldBS.svg"
   inkscape:export-filename="/Users/white/Downloads/rghost test/RGhost — файлообменник_files/logo_winter_oldBS.png"
   inkscape:export-xdpi="90"
   inkscape:export-ydpi="90">
  <defs
     id="defs3140" />
  <sodipodi:namedview
     id="base"
     pagecolor="#ffffff"
     bordercolor="#666666"
     borderopacity="1.0"
     inkscape:pageopacity="0.0"
     inkscape:pageshadow="2"
     inkscape:zoom="7.919596"
     inkscape:cx="29.270559"
     inkscape:cy="7.481713"
     inkscape:document-units="px"
     inkscape:current-layer="g5"
     showgrid="true"
     fit-margin-top="0"
     fit-margin-left="0"
     fit-margin-right="0"
     fit-margin-bottom="0"
     inkscape:window-width="2560"
     inkscape:window-height="1305"
     inkscape:window-x="122"
     inkscape:window-y="50"
     inkscape:window-maximized="0"
     showguides="false"
     inkscape:snap-global="false">
    <inkscape:grid
       type="xygrid"
       id="grid3016"
       empspacing="5"
       visible="true"
       enabled="true"
       snapvisiblegridlinesonly="true"
       originx="3.4375e-06px"
       originy="-6.9335942e-07px" />
  </sodipodi:namedview>
  <metadata
     id="metadata3143">
    <rdf:RDF>
      <cc:Work
         rdf:about="">
        <dc:format>image/svg+xml</dc:format>
        <dc:type
           rdf:resource="http://purl.org/dc/dcmitype/StillImage" />
        <dc:title />
      </cc:Work>
    </rdf:RDF>
  </metadata>
  <g
     inkscape:label="Layer 1"
     inkscape:groupmode="layer"
     id="layer1"
     transform="translate(-294.71973,-501.54654)">
    <g
       transform="matrix(0.58634773,0,0,0.58634773,198.8339,353.13249)"
       id="g5">
      <path
         style="fill:#ffffff;fill-opacity:1"
         inkscape:connector-curvature="0"
         d="m 284.6,312.5 h -6.7 c -0.5,0 -0.7,-0.4 -0.9,-0.9 l -5.8,-11 -0.5,0 c -0.9,0 -2.3,-0.1 -3.1,-0.1 v 11.1 c 0,0.5 -0.4,0.9 -0.9,0.9 H 261 c -0.5,0 -0.9,-0.4 -0.9,-0.9 v -29.2 c 0,-1.5 0.6,-1.9 2,-2.1 2,-0.3 5.7,-0.6 8.8,-0.6 7.4,0 13.1,2.5 13.1,10.2 v 0.6 c 0,4.6 -2.4,7.4 -5.6,8.7 l 6.6,12.3 c 0.1,0.2 0.1,0.3 0.1,0.5 0.2,0.3 0,0.5 -0.5,0.5 z m -7.8,-22.6 c 0,-2.7 -2,-3.9 -5.7,-3.9 -0.6,0 -2.9,0.1 -3.4,0.1 v 8.4 c 0.5,0 2.6,0.1 3.1,0.1 4.6,0 6,-1.2 6,-4.1 v -0.6 z"
         id="path7" />
      <path
         style="fill:#ffffff;fill-opacity:1"
         inkscape:connector-curvature="0"
         d="m 310.2,286.6 c 0,0 -0.1,0 -0.1,0 -2.1,-0.1 -5.4,-0.3 -9.1,-0.3 -3.5,0 -5.7,1.7 -5.7,7.4 v 5.4 c 0,6 2.7,7.4 4.9,7.4 1.2,0 2.3,0 3.4,-0.1 v -10 c 0,-0.5 0.3,-0.9 0.8,-0.9 h 5.6 c 0.5,0 0.9,0.4 0.9,0.9 V 311 c 0,0.6 -0.2,0.9 -0.9,1 -2.4,0.5 -5.4,0.9 -9.8,0.9 -5,0 -12.4,-2.8 -12.4,-13.9 v -5.4 c 0,-11.1 6.9,-13.9 13.2,-13.9 4.4,0 7.5,0.7 9.1,1 0.4,0.1 0.7,0.3 0.7,0.7 v 4.6 c 0.1,0.5 -0.2,0.6 -0.6,0.6 z"
         id="path9" />
      <path
         style="fill:#ffffff"
         inkscape:connector-curvature="0"
         d="m 336.8,312.5 h -5.3 c -0.5,0 -0.9,-0.4 -0.9,-0.9 V 297 c 0,-3 -0.6,-4.1 -3.2,-4.1 -1.3,0 -2.6,0.6 -4.1,1.4 v 17.2 c 0,0.5 -0.4,0.9 -0.9,0.9 h -5.3 c -0.5,0 -0.9,-0.4 -0.9,-0.9 v -31.6 c 0,-0.5 0.4,-0.9 0.9,-0.9 h 5.3 c 0.5,0 0.9,0.4 0.9,0.9 v 9.2 c 2.2,-1.4 4.1,-2 6.7,-2 6.3,0 7.7,4.4 7.7,9.9 v 14.5 c 0.1,0.5 -0.4,1 -0.9,1 z"
         id="path11" />
      <path
         style="fill:#ffffff"
         inkscape:connector-curvature="0"
         d="m 353.2,312.9 c -7.1,0 -10.9,-4.4 -10.9,-11.3 v -3 c 0,-6.9 3.9,-11.3 10.9,-11.3 7.1,0 10.9,4.4 10.9,11.3 v 3 c 0,6.9 -3.8,11.3 -10.9,11.3 z m 3.9,-14.4 c 0,-3.5 -1.4,-5.3 -3.9,-5.3 -2.5,0 -3.9,1.8 -3.9,5.3 v 3 c 0,3.5 1.4,5.4 3.9,5.4 2.5,0 3.9,-1.8 3.9,-5.4 v -3 z"
         id="path13" />
      <path
         style="fill:#ffffff"
         inkscape:connector-curvature="0"
         d="m 376.8,312.9 c -2.4,0 -5.7,-0.3 -7.9,-1 -0.5,-0.1 -0.8,-0.5 -0.8,-1 v -3.5 c 0,-0.4 0.3,-0.8 0.8,-0.8 0,0 0.1,0 0.2,0 2.4,0.3 6,0.6 7.4,0.6 2.1,0 2.6,-0.6 2.6,-1.7 0,-0.7 -0.4,-1.1 -1.6,-1.8 l -5.7,-3.3 c -2.4,-1.4 -3.9,-3.6 -3.9,-6.4 0,-4.4 2.9,-6.8 8.9,-6.8 3.4,0 5.5,0.4 7.8,1 0.5,0.1 0.8,0.5 0.8,1 v 3.5 c 0,0.5 -0.3,0.8 -0.7,0.8 0,0 -0.1,0 -0.1,0 -1.3,-0.2 -5,-0.6 -7.2,-0.6 -1.7,0 -2.3,0.3 -2.3,1.3 0,0.7 0.5,1 1.4,1.5 l 5.4,3.1 c 3.6,2.1 4.4,4.4 4.4,6.7 -0.2,4.1 -3.1,7.4 -9.5,7.4 z"
         id="path15" />
      <path
         style="fill:#ffffff"
         inkscape:connector-curvature="0"
         d="m 403.9,312.5 c -1.3,0.2 -2.2,0.3 -3.4,0.3 -4.8,0 -7.3,-1.3 -7.3,-7.4 v -12.6 l -3.5,-0.6 c -0.5,-0.1 -0.9,-0.4 -0.9,-0.9 v -2.9 c 0,-0.5 0.4,-0.9 0.9,-0.9 h 3.5 v -3.6 c 0,-0.5 0.4,-0.8 0.9,-0.9 l 5.3,-0.9 c 0,0 0.1,0 0.1,0 0.4,0 0.8,0.3 0.8,0.7 v 4.6 h 3.6 c 0.5,0 0.9,0.4 0.9,0.9 v 3.5 c 0,0.5 -0.4,0.9 -0.9,0.9 h -3.6 v 12.7 c 0,1.7 0.1,2 1.4,2 h 2.1 c 0.6,0 0.9,0.3 0.9,0.7 v 3.4 c 0,0.6 -0.3,0.9 -0.8,1 z"
         id="path17" />
    </g>
    <path
       id="XMLID_502_"
       class="st0"
       d="m 313.80074,517.11115 c -0.2708,0.33851 -0.54162,0.60932 -0.81243,1.01555 -1.01556,1.55717 -1.82801,3.2498 -1.89573,6.09334 l 0,19.29556 c 0,0 1.76032,-1.08324 2.43736,-1.08324 0.81244,0 2.1665,1.08324 3.04667,1.08324 0.88013,0 2.43731,-1.08324 3.31747,-1.08324 0.81246,0 2.23423,1.08324 3.04668,1.08324 0.81245,0 2.30192,-1.08324 3.18208,-1.08324 0.81244,0 2.30192,1.15095 3.11435,1.08324 0.60935,-0.0675 1.5572,-1.01555 2.16653,-1.08324 0.60933,-0.0676 2.16651,1.08324 2.16651,1.08324 l 0,-19.29556 c 0,-2.57274 -0.94783,-4.94239 -2.50503,-6.83808 l -17.26446,-0.27081 z m 4.53614,10.76489 c -1.62487,0 -2.97894,-1.28637 -3.04666,-2.97896 0.0676,-1.62491 1.35408,-2.97897 3.04666,-2.97897 1.69262,0 2.97899,1.28637 3.04667,2.97897 -0.13539,1.69259 -1.42177,2.97896 -3.04667,2.97896 z m 9.14001,8.32757 c -0.88015,0 -1.55717,-0.67703 -1.55717,-1.55719 0,-0.88015 0.67702,-1.55719 1.55717,-1.55719 0.88017,0 1.5572,0.67704 1.5572,1.55719 -0.0676,0.88016 -0.74474,1.55719 -1.5572,1.55719 z m -0.67703,-8.32757 c -1.6926,0 -3.04665,-1.35407 -3.04665,-3.04667 0,-1.6926 1.35405,-3.04666 3.04665,-3.04666 1.69262,0 3.04667,1.35406 3.04667,3.04666 0,1.6926 -1.35405,3.04667 -3.04667,3.04667 z"
       inkscape:connector-curvature="0"
       style="fill:#ffffff" />
    <g
       id="g19_17_"
       transform="matrix(0.36473056,0,0,0.36473056,704.08675,572.09104)">
      <path
         id="path27_12_"
         inkscape:connector-curvature="0"
         class="st0"
         d="m -1076.5,-125.5 c 0,0 -3.5,12.2 -13.8,11.4 -10.4,-0.8 -2.9,19.8 2.7,15.8 1.8,-1.5 0.8,-6.6 4.2,-6.5 3.5,0.2 3,-3.3 2.9,-4.2 -0.2,-0.9 3.5,-9.5 6.8,-8.1"
         style="fill:#ffffff" />
      <path
         id="path29_17_"
         inkscape:connector-curvature="0"
         class="st0"
         d="m -1016.4,-125.5 c 0,0 3.5,12.2 13.8,11.4 10.5,-0.8 2.9,19.8 -2.7,15.8 -1.8,-1.5 -0.8,-6.6 -4.2,-6.5 -3.5,0.2 -3,-3.3 -2.9,-4.2 0.2,-0.9 -3.5,-9.5 -6.8,-8.1"
         style="fill:#ffffff" />
    </g>
    <g
       id="g19_16_"
       transform="matrix(0.36473056,0,0,0.36473056,704.08675,572.09104)">
      <path
         id="XMLID_497_"
         class="st0"
         d="m -1075.1,-121.2 c -0.8,-0.6 -1.6,-1.3 -2.3,-2 0.6,-1.4 0.9,-2.3 0.9,-2.3 l 1.4,4.3 z"
         inkscape:connector-curvature="0"
         style="fill:#ffffff" />
      <path
         id="path29_16_"
         inkscape:connector-curvature="0"
         class="st0"
         d="m -1016.4,-125.5 c 0,0 3.5,12.2 13.8,11.4 10.5,-0.8 2.9,19.8 -2.7,15.8 -1.8,-1.5 -0.8,-6.6 -4.2,-6.5 -3.5,0.2 -3,-3.3 -2.9,-4.2 0.2,-0.9 -3.5,-9.5 -6.8,-8.1 l 2.8,-8.4 z"
         style="fill:#ffffff" />
    </g>
    <path
       id="XMLID_496_"
       class="st1"
       d="m 309.73852,536.20361 c -0.20311,0.27081 -0.40622,0.40622 -0.74476,0.2031 -0.60932,-0.27081 -0.88013,-1.21867 -1.15095,-1.9634 -1.08326,-1.96341 -2.91126,-1.96341 -2.91126,-1.96341 -0.20312,0.0676 -0.33853,0.20311 -0.33853,0.60933 0,0 -0.0676,-0.33851 -0.0676,-0.81244 0.0676,0 0.1354,0 0.2031,-0.0676 0,0 1.08326,-0.60935 2.30193,-0.0675 1.21867,0.54163 2.09882,1.89569 2.70815,4.06221 z"
       inkscape:connector-curvature="0"
       style="fill:#87c440" />
    <path
       id="XMLID_495_"
       class="st1"
       d="m 310.75408,528.07915 c 0,-0.0675 -0.0677,-0.0675 -0.13542,-0.0675 0.33852,-0.60934 0.54164,-1.08327 0.54164,-1.08327 4.40073,4.40074 11.23882,4.19764 11.23882,4.19764 0.2031,0 6.90579,0 11.23883,-4.33304 0,0 0.20309,0.54162 0.60933,1.21867 -0.0676,0 -0.0676,0.0675 -0.0676,0.0675 0,0.0676 -3.38519,4.33303 -11.71276,4.33303 -8.32755,0 -11.71274,-4.26533 -11.71274,-4.33303 z"
       inkscape:connector-curvature="0"
       style="fill:#87c440" />
    <path
       id="XMLID_494_"
       class="st1"
       d="m 340.27291,532.95381 c 0,-0.3385 -0.20311,-0.54163 -0.33853,-0.60931 0,0 -0.47391,0 -1.08324,0.27081 -0.60934,0.27081 -1.28637,0.74473 -1.82802,1.76028 -0.2708,0.74476 -0.54163,1.69261 -1.15096,1.96343 -0.1354,0.0676 -0.20308,0.0676 -0.2708,0.0676 0.60931,-2.30192 1.55717,-3.72369 2.77585,-4.26532 0.81244,-0.33852 1.55717,-0.20312 1.96341,-0.13542 0.0677,0.54164 -0.0676,0.94785 -0.0676,0.94785 z"
       inkscape:connector-curvature="0"
       style="fill:#87c440" />
    <path
       id="XMLID_493_"
       class="st0"
       d="m 333.57023,534.64642 0,2.50502 c -0.13541,0.20313 -0.13541,0.27082 -0.40622,0.33853 -0.67702,0.1354 -1.01555,-0.47393 -1.35406,-1.01555 -0.13541,-0.20311 -0.40623,-0.60933 -0.54164,-0.67703 -0.1354,0.0677 -0.20311,0.54163 -0.2708,0.81244 -0.13541,0.60933 -0.27082,1.35407 -0.88017,1.42178 -0.67702,0.13541 -1.01556,-0.54164 -1.28636,-1.08327 -0.13541,-0.20311 -0.3385,-0.67703 -0.47392,-0.67703 -0.13542,0.0676 -0.20312,0.54163 -0.27082,0.74473 -0.13541,0.60933 -0.33852,1.35408 -1.01556,1.4218 -0.67703,0.0676 -1.01556,-0.60935 -1.21866,-1.15099 -0.13541,-0.2031 -0.33854,-0.67702 -0.40623,-0.74474 -0.1354,0.0677 -0.27081,0.54164 -0.33853,0.74474 -0.20309,0.60936 -0.40621,1.28639 -1.08325,1.35409 l 0,0 c -0.60934,0 -0.94786,-0.67704 -1.15097,-1.21868 -0.0676,-0.2031 -0.27082,-0.67703 -0.40622,-0.74472 -0.13541,0.0675 -0.27082,0.54162 -0.40623,0.74472 -0.2031,0.54164 -0.47391,1.21868 -1.15095,1.21868 0,0 0,0 0,0 -0.67703,0 -0.88014,-0.74473 -1.08327,-1.35409 -0.0676,-0.2031 -0.20311,-0.74474 -0.33851,-0.74474 -0.13541,0.0677 -0.33852,0.47393 -0.40622,0.74474 -0.27081,0.54164 -0.54163,1.28639 -1.21867,1.15099 -0.67704,-0.0676 -0.88014,-0.81247 -1.01555,-1.4218 -0.0677,-0.2031 -0.20312,-0.74473 -0.27081,-0.74473 -0.1354,0 -0.33855,0.47392 -0.47394,0.67703 -0.27084,0.54163 -0.67706,1.21868 -1.28637,1.08327 -0.67703,-0.1354 -0.81244,-0.81245 -0.94786,-1.42178 -0.0676,-0.27081 -0.1354,-0.74474 -0.27081,-0.81244 -0.13541,0 -0.40622,0.47392 -0.54163,0.67703 -0.33853,0.54162 -0.74474,1.15095 -1.35407,1.01555 -0.27082,-0.0677 -0.47393,-0.27081 -0.60935,-0.47393 l 0,-2.43732 c 0.40622,0.27082 0.47394,0.81245 0.54163,1.35408 0,0.27081 0.13542,0.81243 0.20313,0.88014 0.13541,0 0.40621,-0.47392 0.54161,-0.67704 0.33852,-0.54163 0.67705,-1.08326 1.28639,-1.01555 0.60933,0.1354 0.74474,0.81245 0.81246,1.42176 0.0676,0.27083 0.13539,0.81246 0.2708,0.81246 0.13541,0 0.40622,-0.47394 0.54162,-0.74474 0.27081,-0.54163 0.60933,-1.15097 1.21868,-1.08325 0.60934,0.0676 0.81244,0.74473 0.94784,1.35405 0.0677,0.27081 0.20313,0.81244 0.33853,0.81244 0.0676,0 0.33852,-0.54163 0.47392,-0.74473 0.27082,-0.54163 0.54164,-1.21866 1.15095,-1.15095 0.60936,0.0677 0.81247,0.67703 1.01558,1.28636 0.0677,0.2031 0.27082,0.81246 0.40622,0.81246 0.13541,0 0.33852,-0.54164 0.40622,-0.74477 0.20311,-0.60933 0.47393,-1.21864 1.08325,-1.21864 0,0 0,0 0,0 0.60935,0 0.88016,0.67703 1.08326,1.21864 0.0677,0.20313 0.33854,0.74477 0.40623,0.74477 0.13541,0 0.27081,-0.54164 0.40622,-0.81246 0.20309,-0.60933 0.40623,-1.21866 1.01556,-1.28636 0.60934,-0.0676 0.94784,0.60932 1.15097,1.15095 0.13541,0.2031 0.3385,0.74473 0.47392,0.74473 0,0 0,0 0,0 0.13541,0 0.27081,-0.60932 0.33851,-0.81244 0.13542,-0.60932 0.33852,-1.28636 0.94786,-1.35405 0.60934,-0.0676 0.94784,0.54162 1.21867,1.08325 0.13541,0.20311 0.40621,0.74474 0.54162,0.74474 0.13542,0 0.20311,-0.60934 0.27081,-0.81246 0.13541,-0.60931 0.27083,-1.28636 0.88016,-1.42176 0.60934,-0.13541 0.94785,0.47392 1.28637,1.01555 0.13542,0.20312 0.40623,0.67704 0.54164,0.67704 0.1354,0 0.20311,-0.60933 0.20311,-0.88014 0.2031,-0.54163 0.2031,-1.01558 0.47391,-1.28638 z"
       inkscape:connector-curvature="0"
       style="fill:#ffffff" />
    <path
       id="XMLID_492_"
       class="st0"
       d="m 334.72121,528.62079 c -0.47393,0.60931 -3.99452,4.53615 -12.25439,4.53615 -8.19215,0 -11.71274,-3.85912 -12.25438,-4.53615 0.20311,-0.20313 0.33851,-0.40623 0.40622,-0.60935 0.0677,0 0.0677,0.0676 0.13542,0.0676 0,0.0676 3.38518,4.33303 11.71274,4.33303 8.32757,0 11.64506,-4.26532 11.71277,-4.33303 0,0 0.0676,-0.0676 0.0676,-0.0676 0.1354,0.20312 0.27082,0.40622 0.47393,0.60935 z"
       inkscape:connector-curvature="0"
       style="fill:#ffffff" />
    <path
       id="XMLID_491_"
       class="st0"
       d="m 310.14474,534.91722 c -0.0677,0.47395 -0.20311,0.94787 -0.40622,1.28639 -0.60935,-2.16654 -1.48949,-3.5206 -2.70816,-4.06223 -1.21867,-0.54164 -2.30193,0 -2.30193,0.0675 -0.0677,0 -0.13541,0.0676 -0.20311,0.0676 0,-0.27081 0.0676,-0.60934 0.20311,-0.88015 0.54163,-0.2031 1.55719,-0.40622 2.57276,0.13541 1.21866,0.40623 2.16651,1.5572 2.84355,3.38519 z"
       inkscape:connector-curvature="0"
       style="fill:#ffffff" />
    <path
       id="XMLID_490_"
       class="st0"
       d="m 340.34062,532.00597 c -0.40624,-0.13542 -1.15097,-0.27082 -1.96341,0.13541 -1.21868,0.54163 -2.16654,1.96339 -2.77585,4.26533 -0.27081,0 -0.47393,-0.27081 -0.60934,-0.67703 0.67706,-2.30192 1.6926,-3.72371 3.04669,-4.33304 0.74473,-0.33852 1.48944,-0.33852 2.03109,-0.27081 l 0,0 c 0.20311,0.33851 0.27082,0.60932 0.27082,0.88014 z"
       inkscape:connector-curvature="0"
       style="fill:#ffffff" />
    <g
       id="XMLID_487_"
       transform="matrix(0.67703768,0,0,0.67703768,564.44009,324.69704)">
      <path
         id="XMLID_489_"
         class="st2"
         d="m -331.7,304.5 c -0.2,-0.2 -0.3,-0.3 -0.5,-0.4 -0.1,0 -0.1,-0.1 -0.2,-0.1 -0.7,-0.3 -1.4,-0.2 -1.4,-0.2 -2.6,0 -4.4,-1.3 -5.5,-2.6 -0.7,0.9 -5.9,6.7 -18.1,6.7 -12.1,0 -17.3,-5.7 -18.1,-6.7 -1.1,1.4 -2.8,2.8 -5.6,2.7 0,0 -0.7,-0.2 -1.4,0.1 0,0 -0.1,0.1 -0.2,0.1 -0.2,0.1 -0.4,0.2 -0.5,0.4 -0.2,0.2 -0.3,0.4 -0.4,0.6 0.8,-0.3 2.3,-0.6 3.8,0.2 1.7,0.8 3.1,2.5 4.1,5.1 0.1,-0.5 0.2,-0.9 0.3,-1.3 0.4,-1.4 0.7,-2.6 1.2,-2.7 l 0,3.5 c 0.6,0.4 0.7,1.2 0.8,2 0,0.4 0.2,1.2 0.3,1.3 0.2,0 0.6,-0.7 0.8,-1 0.5,-0.8 1,-1.6 1.9,-1.5 0.9,0.2 1.1,1.2 1.2,2.1 0.1,0.4 0.2,1.2 0.4,1.2 0.2,0 0.6,-0.7 0.8,-1.1 0.4,-0.8 0.9,-1.7 1.8,-1.6 0.9,0.1 1.2,1.1 1.4,2 0.1,0.4 0.3,1.2 0.5,1.2 0.1,0 0.5,-0.8 0.7,-1.1 0.4,-0.8 0.8,-1.8 1.7,-1.7 0.9,0.1 1.2,1 1.5,1.9 0.1,0.3 0.4,1.2 0.6,1.2 0.2,0 0.5,-0.8 0.6,-1.1 0.3,-0.9 0.7,-1.8 1.6,-1.8 0,0 0,0 0,0 0.9,0 1.3,1 1.6,1.8 0.1,0.3 0.5,1.1 0.6,1.1 0.2,0 0.4,-0.8 0.6,-1.2 0.3,-0.9 0.6,-1.8 1.5,-1.9 0.9,-0.1 1.4,0.9 1.7,1.7 0.2,0.3 0.5,1.1 0.7,1.1 0,0 0,0 0,0 0.2,0 0.4,-0.9 0.5,-1.2 0.2,-0.9 0.5,-1.9 1.4,-2 0.9,-0.1 1.4,0.8 1.8,1.6 0.2,0.3 0.6,1.1 0.8,1.1 0.2,0 0.3,-0.9 0.4,-1.2 0.2,-0.9 0.4,-1.9 1.3,-2.1 0.9,-0.2 1.4,0.7 1.9,1.5 0.2,0.3 0.6,1 0.8,1 0.2,0 0.3,-0.9 0.3,-1.3 0.1,-0.7 0,-1.5 0.5,-1.9 l 0,-3.7 c 0.5,0.1 1,1.3 1.4,2.7 0.2,0.7 0.3,1.9 0.6,2.7 1,-3.4 2.5,-5.5 4.5,-6.4 1.1,-0.5 2.2,-0.5 3,-0.4 0.3,-0.1 0.1,-0.3 0,-0.4 z"
         inkscape:connector-curvature="0"
         style="fill:#e85757" />
      <path
         id="XMLID_488_"
         class="st2"
         d="m -341.5,314.3 c -1,0.2 -1.5,-0.7 -2,-1.5 -0.2,-0.3 -0.6,-0.9 -0.8,-1 -0.2,0.1 -0.3,0.8 -0.4,1.2 -0.2,0.9 -0.4,2 -1.3,2.1 -1,0.2 -1.5,-0.8 -1.9,-1.6 -0.2,-0.3 -0.5,-1 -0.7,-1 -0.2,0.1 -0.3,0.8 -0.4,1.1 -0.2,0.9 -0.5,2 -1.5,2.1 -1,0.1 -1.5,-0.9 -1.8,-1.7 -0.2,-0.3 -0.5,-1 -0.6,-1.1 -0.2,0.1 -0.4,0.8 -0.5,1.1 -0.3,0.9 -0.6,1.9 -1.6,2 l 0,0 c -0.9,0 -1.4,-1 -1.7,-1.8 -0.1,-0.3 -0.4,-1 -0.6,-1.1 -0.2,0.1 -0.4,0.8 -0.6,1.1 -0.3,0.8 -0.7,1.8 -1.7,1.8 0,0 0,0 0,0 -1,0 -1.3,-1.1 -1.6,-2 -0.1,-0.3 -0.3,-1.1 -0.5,-1.1 -0.2,0.1 -0.5,0.7 -0.6,1.1 -0.4,0.8 -0.8,1.9 -1.8,1.7 -1,-0.1 -1.3,-1.2 -1.5,-2.1 -0.1,-0.3 -0.3,-1.1 -0.4,-1.1 -0.2,0 -0.5,0.7 -0.7,1 -0.4,0.8 -1,1.8 -1.9,1.6 -1,-0.2 -1.2,-1.2 -1.4,-2.1 -0.1,-0.4 -0.2,-1.1 -0.4,-1.2 -0.2,0 -0.6,0.7 -0.8,1 -0.5,0.8 -1.1,1.7 -2,1.5 -0.4,-0.1 -0.7,-0.4 -0.9,-0.7 l 0,2.7 c 0,0 3.9,2.1 16.7,2.1 12.8,0 16.5,-2.2 16.5,-2.2 l 0,-2.5 c -0.2,0.4 -0.3,0.5 -0.6,0.6 z"
         inkscape:connector-curvature="0"
         style="fill:#e85757" />
    </g>
    <g
       id="XMLID_482_"
       transform="matrix(0.67703768,0,0,0.67703768,564.44009,324.69704)">
      <path
         id="XMLID_486_"
         class="st2"
         d="m -368.5,277.7 c 0,0 -5.7,4.9 -8.2,6.4 -2.5,1.5 -2.9,5.7 -2.9,11.5 l 0.9,0 c 0,0 0.9,-8.2 5.3,-8.8 4.4,-0.6 4.9,-9.1 4.9,-9.1 z"
         inkscape:connector-curvature="0"
         style="fill:#e85757" />
      <path
         id="XMLID_485_"
         class="st2"
         d="m -341.2,290.5 c 0,-0.3 0.1,-0.7 0.1,-1 0,-8.9 -7.2,-16.2 -16.2,-16.2 -8.9,0 -16.2,7.2 -16.2,16.2 0,0.4 0,0.7 0.1,1.1 7.1,-0.3 22.5,-0.8 32.2,-0.1 z"
         inkscape:connector-curvature="0"
         style="fill:#e85757" />
      <path
         id="XMLID_484_"
         class="st0"
         d="m -342.6,292.8 c -9.3,-3.2 -19.4,-3.2 -28.7,0 -1.6,0.5 -3.3,-0.2 -3.9,-1.8 l 0,-0.1 c -0.7,-1.7 0.2,-3.6 1.9,-4.2 10.6,-3.6 22.2,-3.6 32.8,0 1.7,0.6 2.6,2.5 1.9,4.2 l 0,0.1 c -0.7,1.6 -2.5,2.4 -4,1.8 z"
         inkscape:connector-curvature="0"
         style="fill:#ffffff" />
      <circle
         id="XMLID_483_"
         class="st0"
         cx="-379.60001"
         cy="295.60001"
         r="2.9000001"
         style="fill:#ffffff" />
    </g>
    <g
       id="XMLID_480_"
       transform="matrix(0.67703768,0,0,0.67703768,564.44009,324.69704)">
      <circle
         id="XMLID_540_"
         class="st0"
         cx="-380.5"
         cy="285.5"
         r="1.7"
         style="fill:#ffffff" />
      <circle
         id="XMLID_539_"
         class="st0"
         cx="-384.79999"
         cy="295.60001"
         r="1.1"
         style="fill:#ffffff" />
      <circle
         id="XMLID_538_"
         class="st0"
         cx="-376.10001"
         cy="293.39999"
         r="0.60000002"
         style="fill:#ffffff" />
      <circle
         id="XMLID_537_"
         class="st0"
         cx="-388.5"
         cy="301.60001"
         r="1.5"
         style="fill:#ffffff" />
      <circle
         id="XMLID_536_"
         class="st0"
         cx="-379"
         cy="302.10001"
         r="1.3"
         style="fill:#ffffff" />
      <circle
         id="XMLID_535_"
         class="st0"
         cx="-386.20001"
         cy="307.5"
         r="0.40000001"
         style="fill:#ffffff" />
      <circle
         id="XMLID_534_"
         class="st0"
         cx="-387.60001"
         cy="311.60001"
         r="1.9"
         style="fill:#ffffff" />
      <circle
         id="XMLID_533_"
         class="st0"
         cx="-376.89999"
         cy="316"
         r="0.40000001"
         style="fill:#ffffff" />
      <circle
         id="XMLID_532_"
         class="st0"
         cx="-382.60001"
         cy="316.70001"
         r="1"
         style="fill:#ffffff" />
      <circle
         id="XMLID_531_"
         class="st0"
         cx="-385.39999"
         cy="320.70001"
         r="1.2"
         style="fill:#ffffff" />
      <circle
         id="XMLID_530_"
         class="st0"
         cx="-377.29999"
         cy="321.89999"
         r="1.2"
         style="fill:#ffffff" />
      <circle
         id="XMLID_529_"
         class="st0"
         cx="-385.10001"
         cy="289.5"
         r="0.80000001"
         style="fill:#ffffff" />
      <circle
         id="XMLID_526_"
         class="st0"
         cx="-375.60001"
         cy="278.39999"
         r="1.3"
         style="fill:#ffffff" />
      <circle
         id="XMLID_525_"
         class="st0"
         cx="-383"
         cy="281.39999"
         r="0.80000001"
         style="fill:#ffffff" />
      <circle
         id="XMLID_524_"
         class="st0"
         cx="-336"
         cy="286.10001"
         r="1.7"
         style="fill:#ffffff" />
      <circle
         id="XMLID_523_"
         class="st0"
         cx="-332.10001"
         cy="295.60001"
         r="1.1"
         style="fill:#ffffff" />
      <circle
         id="XMLID_522_"
         class="st0"
         cx="-337.5"
         cy="292.89999"
         r="0.60000002"
         style="fill:#ffffff" />
      <circle
         id="XMLID_520_"
         class="st0"
         cx="-326.39999"
         cy="301.60001"
         r="1.5"
         style="fill:#ffffff" />
      <circle
         id="XMLID_519_"
         class="st0"
         cx="-335.60001"
         cy="300.20001"
         r="1.3"
         style="fill:#ffffff" />
      <circle
         id="XMLID_518_"
         class="st0"
         cx="-328.70001"
         cy="307.5"
         r="0.40000001"
         style="fill:#ffffff" />
      <circle
         id="XMLID_517_"
         class="st0"
         cx="-327.39999"
         cy="311.60001"
         r="1.9"
         style="fill:#ffffff" />
      <circle
         id="XMLID_516_"
         class="st0"
         cx="-338"
         cy="316"
         r="0.40000001"
         style="fill:#ffffff" />
      <circle
         id="XMLID_515_"
         class="st0"
         cx="-332.29999"
         cy="316.70001"
         r="1"
         style="fill:#ffffff" />
      <circle
         id="XMLID_514_"
         class="st0"
         cx="-329.60001"
         cy="320.70001"
         r="1.2"
         style="fill:#ffffff" />
      <circle
         id="XMLID_513_"
         class="st0"
         cx="-337.60001"
         cy="321.89999"
         r="1.2"
         style="fill:#ffffff" />
      <circle
         id="XMLID_512_"
         class="st0"
         cx="-329.79999"
         cy="289.5"
         r="0.80000001"
         style="fill:#ffffff" />
      <circle
         id="XMLID_511_"
         class="st0"
         cx="-344.10001"
         cy="278"
         r="0.80000001"
         style="fill:#ffffff" />
      <circle
         id="XMLID_510_"
         class="st0"
         cx="-340"
         cy="284"
         r="1"
         style="fill:#ffffff" />
      <circle
         id="XMLID_508_"
         class="st0"
         cx="-339.29999"
         cy="278.39999"
         r="1.3"
         style="fill:#ffffff" />
      <circle
         id="XMLID_507_"
         class="st0"
         cx="-331.89999"
         cy="281.39999"
         r="0.80000001"
         style="fill:#ffffff" />
    </g>
  </g>
</svg>
