<?xml version="1.0" encoding="UTF-8" standalone="no"?>
<!-- Created with Inkscape (http://www.inkscape.org/) -->

<svg
   xmlns:dc="http://purl.org/dc/elements/1.1/"
   xmlns:cc="http://creativecommons.org/ns#"
   xmlns:rdf="http://www.w3.org/1999/02/22-rdf-syntax-ns#"
   xmlns:svg="http://www.w3.org/2000/svg"
   xmlns="http://www.w3.org/2000/svg"
   xmlns:sodipodi="http://sodipodi.sourceforge.net/DTD/sodipodi-0.dtd"
   xmlns:inkscape="http://www.inkscape.org/namespaces/inkscape"
   width="131.36351"
   height="50"
   id="svg3138"
   version="1.1"
   inkscape:version="0.91 r13725"
   sodipodi:docname="BootstrapRGhostLogo3.svg">
  <defs
     id="defs3140" />
  <sodipodi:namedview
     id="base"
     pagecolor="#ffffff"
     bordercolor="#666666"
     borderopacity="1.0"
     inkscape:pageopacity="0.0"
     inkscape:pageshadow="2"
     inkscape:zoom="7.919596"
     inkscape:cx="68.984672"
     inkscape:cy="4.5404749"
     inkscape:document-units="px"
     inkscape:current-layer="g5"
     showgrid="true"
     fit-margin-top="8.367"
     fit-margin-left="0"
     fit-margin-right="0"
     fit-margin-bottom="8.36675"
     inkscape:window-width="2560"
     inkscape:window-height="1305"
     inkscape:window-x="0"
     inkscape:window-y="1"
     inkscape:window-maximized="1"
     showguides="false"
     inkscape:snap-global="false">
    <inkscape:grid
       type="xygrid"
       id="grid3016"
       empspacing="5"
       visible="true"
       enabled="true"
       snapvisiblegridlinesonly="true"
       originx="-10.104179"
       originy="-0.00011089677" />
  </sodipodi:namedview>
  <metadata
     id="metadata3143">
    <rdf:RDF>
      <cc:Work
         rdf:about="">
        <dc:format>image/svg+xml</dc:format>
        <dc:type
           rdf:resource="http://purl.org/dc/dcmitype/StillImage" />
        <dc:title></dc:title>
      </cc:Work>
    </rdf:RDF>
  </metadata>
  <g
     inkscape:label="Layer 1"
     inkscape:groupmode="layer"
     id="layer1"
     transform="translate(-304.82396,-501.54641)">
    <g
       transform="matrix(0.58634773,0,0,0.58634773,198.8339,353.13249)"
       id="g5">
      <path
         style="fill:#ffffff;fill-opacity:1"
         inkscape:connector-curvature="0"
         d="m 284.6,312.5 -6.7,0 c -0.5,0 -0.7,-0.4 -0.9,-0.9 l -5.8,-11 -0.5,0 c -0.9,0 -2.3,-0.1 -3.1,-0.1 l 0,11.1 c 0,0.5 -0.4,0.9 -0.9,0.9 l -5.7,0 c -0.5,0 -0.9,-0.4 -0.9,-0.9 l 0,-29.2 c 0,-1.5 0.6,-1.9 2,-2.1 2,-0.3 5.7,-0.6 8.8,-0.6 7.4,0 13.1,2.5 13.1,10.2 l 0,0.6 c 0,4.6 -2.4,7.4 -5.6,8.7 l 6.6,12.3 c 0.1,0.2 0.1,0.3 0.1,0.5 0.2,0.3 0,0.5 -0.5,0.5 z m -7.8,-22.6 c 0,-2.7 -2,-3.9 -5.7,-3.9 -0.6,0 -2.9,0.1 -3.4,0.1 l 0,8.4 c 0.5,0 2.6,0.1 3.1,0.1 4.6,0 6,-1.2 6,-4.1 l 0,-0.6 z"
         id="path7" />
      <path
         style="fill:#ffffff;fill-opacity:1"
         inkscape:connector-curvature="0"
         d="m 310.2,286.6 c 0,0 -0.1,0 -0.1,0 -2.1,-0.1 -5.4,-0.3 -9.1,-0.3 -3.5,0 -5.7,1.7 -5.7,7.4 l 0,5.4 c 0,6 2.7,7.4 4.9,7.4 1.2,0 2.3,0 3.4,-0.1 l 0,-10 c 0,-0.5 0.3,-0.9 0.8,-0.9 l 5.6,0 c 0.5,0 0.9,0.4 0.9,0.9 l 0,14.6 c 0,0.6 -0.2,0.9 -0.9,1 -2.4,0.5 -5.4,0.9 -9.8,0.9 -5,0 -12.4,-2.8 -12.4,-13.9 l 0,-5.4 c 0,-11.1 6.9,-13.9 13.2,-13.9 4.4,0 7.5,0.7 9.1,1 0.4,0.1 0.7,0.3 0.7,0.7 l 0,4.6 c 0.1,0.5 -0.2,0.6 -0.6,0.6 z"
         id="path9" />
      <path
         style="fill:#ffffff"
         inkscape:connector-curvature="0"
         d="m 336.8,312.5 -5.3,0 c -0.5,0 -0.9,-0.4 -0.9,-0.9 l 0,-14.6 c 0,-3 -0.6,-4.1 -3.2,-4.1 -1.3,0 -2.6,0.6 -4.1,1.4 l 0,17.2 c 0,0.5 -0.4,0.9 -0.9,0.9 l -5.3,0 c -0.5,0 -0.9,-0.4 -0.9,-0.9 l 0,-31.6 c 0,-0.5 0.4,-0.9 0.9,-0.9 l 5.3,0 c 0.5,0 0.9,0.4 0.9,0.9 l 0,9.2 c 2.2,-1.4 4.1,-2 6.7,-2 6.3,0 7.7,4.4 7.7,9.9 l 0,14.5 c 0.1,0.5 -0.4,1 -0.9,1 z"
         id="path11" />
      <path
         style="fill:#ffffff"
         inkscape:connector-curvature="0"
         d="m 353.2,312.9 c -7.1,0 -10.9,-4.4 -10.9,-11.3 l 0,-3 c 0,-6.9 3.9,-11.3 10.9,-11.3 7.1,0 10.9,4.4 10.9,11.3 l 0,3 c 0,6.9 -3.8,11.3 -10.9,11.3 z m 3.9,-14.4 c 0,-3.5 -1.4,-5.3 -3.9,-5.3 -2.5,0 -3.9,1.8 -3.9,5.3 l 0,3 c 0,3.5 1.4,5.4 3.9,5.4 2.5,0 3.9,-1.8 3.9,-5.4 l 0,-3 z"
         id="path13" />
      <path
         style="fill:#ffffff"
         inkscape:connector-curvature="0"
         d="m 376.8,312.9 c -2.4,0 -5.7,-0.3 -7.9,-1 -0.5,-0.1 -0.8,-0.5 -0.8,-1 l 0,-3.5 c 0,-0.4 0.3,-0.8 0.8,-0.8 0,0 0.1,0 0.2,0 2.4,0.3 6,0.6 7.4,0.6 2.1,0 2.6,-0.6 2.6,-1.7 0,-0.7 -0.4,-1.1 -1.6,-1.8 l -5.7,-3.3 c -2.4,-1.4 -3.9,-3.6 -3.9,-6.4 0,-4.4 2.9,-6.8 8.9,-6.8 3.4,0 5.5,0.4 7.8,1 0.5,0.1 0.8,0.5 0.8,1 l 0,3.5 c 0,0.5 -0.3,0.8 -0.7,0.8 0,0 -0.1,0 -0.1,0 -1.3,-0.2 -5,-0.6 -7.2,-0.6 -1.7,0 -2.3,0.3 -2.3,1.3 0,0.7 0.5,1 1.4,1.5 l 5.4,3.1 c 3.6,2.1 4.4,4.4 4.4,6.7 -0.2,4.1 -3.1,7.4 -9.5,7.4 z"
         id="path15" />
      <path
         style="fill:#ffffff"
         inkscape:connector-curvature="0"
         d="m 403.9,312.5 c -1.3,0.2 -2.2,0.3 -3.4,0.3 -4.8,0 -7.3,-1.3 -7.3,-7.4 l 0,-12.6 -3.5,-0.6 c -0.5,-0.1 -0.9,-0.4 -0.9,-0.9 l 0,-2.9 c 0,-0.5 0.4,-0.9 0.9,-0.9 l 3.5,0 0,-3.6 c 0,-0.5 0.4,-0.8 0.9,-0.9 l 5.3,-0.9 c 0,0 0.1,0 0.1,0 0.4,0 0.8,0.3 0.8,0.7 l 0,4.6 3.6,0 c 0.5,0 0.9,0.4 0.9,0.9 l 0,3.5 c 0,0.5 -0.4,0.9 -0.9,0.9 l -3.6,0 0,12.7 c 0,1.7 0.1,2 1.4,2 l 2.1,0 c 0.6,0 0.9,0.3 0.9,0.7 l 0,3.4 c 0,0.6 -0.3,0.9 -0.8,1 z"
         id="path17" />
    </g>
    <g
       transform="matrix(0.53871531,0,0,0.53871531,206.26132,365.40656)"
       id="g19">
      <path
         style="fill:#ffffff"
         inkscape:connector-curvature="0"
         d="m 195.6,298.5 c 0,0 -2.3,8.1 -9.2,7.6 -6.9,-0.5 -1.9,13.2 1.8,10.5 1.2,-1 0.5,-4.4 2.8,-4.3 2.3,0.1 2,-2.2 1.9,-2.8 -0.1,-0.6 2.3,-6.3 4.5,-5.4"
         id="path27" />
      <path
         style="fill:#ffffff"
         d="m 39.5,9.65625 c 9.5,1.6 17.21875,9.81875 17.21875,19.71875 l 0,35.1875 c 0,0 -2.9,-2.1 -4,-2 -1.1,0.1 -2.9,1.9 -4,2 -1.5,0.1 -4.21875,-2 -5.71875,-2 -1.6,0 -4.28125,2 -5.78125,2 -1.4,0 -4,-2 -5.5,-2 -1.6,0 -4.4,2 -6,2 -1.5,0 -4,-2 -5.5,-2 -1.3,0 -4.5,2 -4.5,2 l 0,-35.1875 c 0.14971,-5.267829 1.53359,-8.337156 3.427144,-11.168652 0.900154,-1.346031 1.758661,-2.289535 3.125518,-3.48786 C 25.33198,12.286851 21.129674,10.394153 21.178924,6.5560313 21.002049,2.8679097 23.775927,2.4931786 24.178636,2.9905283 27.672424,8.4216914 37.633079,9.2708216 39.5,9.65625 Z M 38.8125,30.375 c 0,3.037566 2.462434,5.5 5.5,5.5 3.037566,0 5.5,-2.462434 5.5,-5.5 0,-3.037566 -2.462434,-5.5 -5.5,-5.5 -3.037566,0 -5.5,2.462434 -5.5,5.5 z m -15.5,0.1875 c 0.1,3 2.5,5.40625 5.5,5.40625 3,0 5.4,-2.40625 5.5,-5.40625 -0.1,-3 -2.5,-5.40625 -5.5,-5.40625 -3,0 -5.4,2.40625 -5.5,5.40625 z M 42.71875,48.375 c 0,1.546397 1.234853,2.78125 2.78125,2.78125 1.546397,0 2.8125,-1.234853 2.8125,-2.78125 0,-1.546397 -1.266103,-2.8125 -2.8125,-2.8125 -1.546397,0 -2.78125,1.266103 -2.78125,2.8125 z"
         id="path21"
         inkscape:connector-curvature="0"
         sodipodi:nodetypes="cscscsssssccsccccssssscscscsssss"
         transform="translate(179.28571,265.42856)" />
      <path
         style="fill:#ffffff"
         inkscape:connector-curvature="0"
         d="m 235.6,298.5 c 0,0 2.3,8.1 9.2,7.6 7,-0.5 1.9,13.2 -1.8,10.5 -1.2,-1 -0.5,-4.4 -2.8,-4.3 -2.3,0.1 -2,-2.2 -1.9,-2.8 0.1,-0.6 -2.3,-6.3 -4.5,-5.4"
         id="path29" />
    </g>
  </g>
</svg>
